<svg aria-hidden="true" style="position: absolute; width: 0; height: 0; overflow: hidden;" version="1.1" xmlns="http://www.w3.org/2000/svg" xmlns:xlink="http://www.w3.org/1999/xlink">
<defs>
<symbol id="icon-price-tags" viewBox="0 0 40 32">
<path d="M38.5 0h-12c-0.825 0-1.977 0.477-2.561 1.061l-14.879 14.879c-0.583 0.583-0.583 1.538 0 2.121l12.879 12.879c0.583 0.583 1.538 0.583 2.121 0l14.879-14.879c0.583-0.583 1.061-1.736 1.061-2.561v-12c0-0.825-0.675-1.5-1.5-1.5zM31 12c-1.657 0-3-1.343-3-3s1.343-3 3-3 3 1.343 3 3-1.343 3-3 3z"></path>
<path d="M4 17l17-17h-2.5c-0.825 0-1.977 0.477-2.561 1.061l-14.879 14.879c-0.583 0.583-0.583 1.538 0 2.121l12.879 12.879c0.583 0.583 1.538 0.583 2.121 0l0.939-0.939-13-13z"></path>
</symbol>
<symbol id="icon-cart" viewBox="0 0 32 32">
<path d="M12 29c0 1.657-1.343 3-3 3s-3-1.343-3-3c0-1.657 1.343-3 3-3s3 1.343 3 3z"></path>
<path d="M32 29c0 1.657-1.343 3-3 3s-3-1.343-3-3c0-1.657 1.343-3 3-3s3 1.343 3 3z"></path>
<path d="M32 16v-12h-24c0-1.105-0.895-2-2-2h-6v2h4l1.502 12.877c-0.915 0.733-1.502 1.859-1.502 3.123 0 2.209 1.791 4 4 4h24v-2h-24c-1.105 0-2-0.895-2-2 0-0.007 0-0.014 0-0.020l26-3.98z"></path>
</symbol>
<symbol id="icon-bubbles" viewBox="0 0 36 32">
<path d="M34 28.161c0 1.422 0.813 2.653 2 3.256v0.498c-0.332 0.045-0.671 0.070-1.016 0.070-2.125 0-4.042-0.892-5.398-2.321-0.819 0.218-1.688 0.336-2.587 0.336-4.971 0-9-3.582-9-8s4.029-8 9-8c4.971 0 9 3.582 9 8 0 1.73-0.618 3.331-1.667 4.64-0.213 0.463-0.333 0.979-0.333 1.522zM16 0c8.702 0 15.781 5.644 15.995 12.672-1.537-0.685-3.237-1.047-4.995-1.047-2.986 0-5.807 1.045-7.942 2.943-2.214 1.968-3.433 4.607-3.433 7.432 0 1.396 0.298 2.747 0.867 3.993-0.163 0.004-0.327 0.007-0.492 0.007-0.849 0-1.682-0.054-2.495-0.158-3.437 3.437-7.539 4.053-11.505 4.144v-0.841c2.142-1.049 4-2.961 4-5.145 0-0.305-0.024-0.604-0.068-0.897-3.619-2.383-5.932-6.024-5.932-10.103 0-7.18 7.163-13 16-13z"></path>
</symbol>
<symbol id="icon-lock" viewBox="0 0 32 32">
<path d="M18.5 14h-0.5v-6c0-3.308-2.692-6-6-6h-4c-3.308 0-6 2.692-6 6v6h-0.5c-0.825 0-1.5 0.675-1.5 1.5v15c0 0.825 0.675 1.5 1.5 1.5h17c0.825 0 1.5-0.675 1.5-1.5v-15c0-0.825-0.675-1.5-1.5-1.5zM6 8c0-1.103 0.897-2 2-2h4c1.103 0 2 0.897 2 2v6h-8v-6z"></path>
</symbol>
<symbol id="icon-bin" viewBox="0 0 32 32">
<path d="M4 10v20c0 1.1 0.9 2 2 2h18c1.1 0 2-0.9 2-2v-20h-22zM10 28h-2v-14h2v14zM14 28h-2v-14h2v14zM18 28h-2v-14h2v14zM22 28h-2v-14h2v14z"></path>
<path d="M26.5 4h-6.5v-2.5c0-0.825-0.675-1.5-1.5-1.5h-7c-0.825 0-1.5 0.675-1.5 1.5v2.5h-6.5c-0.825 0-1.5 0.675-1.5 1.5v2.5h26v-2.5c0-0.825-0.675-1.5-1.5-1.5zM18 4h-6v-1.975h6v1.975z"></path>
</symbol>
<symbol id="icon-checkmark" viewBox="0 0 32 32">
<path d="M27 4l-15 15-7-7-5 5 12 12 20-20z"></path>
</symbol>
<symbol id="icon-facebook" viewBox="0 0 32 32">
<path d="M19 6h5v-6h-5c-3.86 0-7 3.14-7 7v3h-4v6h4v16h6v-16h5l1-6h-6v-3c0-0.542 0.458-1 1-1z"></path>
</symbol>
<symbol id="icon-instagram" viewBox="0 0 32 32">
<path d="M16 2.881c4.275 0 4.781 0.019 6.462 0.094 1.563 0.069 2.406 0.331 2.969 0.55 0.744 0.288 1.281 0.638 1.837 1.194 0.563 0.563 0.906 1.094 1.2 1.838 0.219 0.563 0.481 1.412 0.55 2.969 0.075 1.688 0.094 2.194 0.094 6.463s-0.019 4.781-0.094 6.463c-0.069 1.563-0.331 2.406-0.55 2.969-0.288 0.744-0.637 1.281-1.194 1.837-0.563 0.563-1.094 0.906-1.837 1.2-0.563 0.219-1.413 0.481-2.969 0.55-1.688 0.075-2.194 0.094-6.463 0.094s-4.781-0.019-6.463-0.094c-1.563-0.069-2.406-0.331-2.969-0.55-0.744-0.288-1.281-0.637-1.838-1.194-0.563-0.563-0.906-1.094-1.2-1.837-0.219-0.563-0.481-1.413-0.55-2.969-0.075-1.688-0.094-2.194-0.094-6.463s0.019-4.781 0.094-6.463c0.069-1.563 0.331-2.406 0.55-2.969 0.288-0.744 0.638-1.281 1.194-1.838 0.563-0.563 1.094-0.906 1.838-1.2 0.563-0.219 1.412-0.481 2.969-0.55 1.681-0.075 2.188-0.094 6.463-0.094zM16 0c-4.344 0-4.887 0.019-6.594 0.094-1.7 0.075-2.869 0.35-3.881 0.744-1.056 0.412-1.95 0.956-2.837 1.85-0.894 0.888-1.438 1.781-1.85 2.831-0.394 1.019-0.669 2.181-0.744 3.881-0.075 1.713-0.094 2.256-0.094 6.6s0.019 4.887 0.094 6.594c0.075 1.7 0.35 2.869 0.744 3.881 0.413 1.056 0.956 1.95 1.85 2.837 0.887 0.887 1.781 1.438 2.831 1.844 1.019 0.394 2.181 0.669 3.881 0.744 1.706 0.075 2.25 0.094 6.594 0.094s4.888-0.019 6.594-0.094c1.7-0.075 2.869-0.35 3.881-0.744 1.050-0.406 1.944-0.956 2.831-1.844s1.438-1.781 1.844-2.831c0.394-1.019 0.669-2.181 0.744-3.881 0.075-1.706 0.094-2.25 0.094-6.594s-0.019-4.887-0.094-6.594c-0.075-1.7-0.35-2.869-0.744-3.881-0.394-1.063-0.938-1.956-1.831-2.844-0.887-0.887-1.781-1.438-2.831-1.844-1.019-0.394-2.181-0.669-3.881-0.744-1.712-0.081-2.256-0.1-6.6-0.1v0z"></path>
<path d="M16 7.781c-4.537 0-8.219 3.681-8.219 8.219s3.681 8.219 8.219 8.219 8.219-3.681 8.219-8.219c0-4.537-3.681-8.219-8.219-8.219zM16 21.331c-2.944 0-5.331-2.387-5.331-5.331s2.387-5.331 5.331-5.331c2.944 0 5.331 2.387 5.331 5.331s-2.387 5.331-5.331 5.331z"></path>
<path d="M26.462 7.456c0 1.060-0.859 1.919-1.919 1.919s-1.919-0.859-1.919-1.919c0-1.060 0.859-1.919 1.919-1.919s1.919 0.859 1.919 1.919z"></path>
</symbol>
<symbol id="icon-twitter" viewBox="0 0 32 32">
<path d="M32 7.075c-1.175 0.525-2.444 0.875-3.769 1.031 1.356-0.813 2.394-2.1 2.887-3.631-1.269 0.75-2.675 1.3-4.169 1.594-1.2-1.275-2.906-2.069-4.794-2.069-3.625 0-6.563 2.938-6.563 6.563 0 0.512 0.056 1.012 0.169 1.494-5.456-0.275-10.294-2.888-13.531-6.862-0.563 0.969-0.887 2.1-0.887 3.3 0 2.275 1.156 4.287 2.919 5.463-1.075-0.031-2.087-0.331-2.975-0.819 0 0.025 0 0.056 0 0.081 0 3.181 2.263 5.838 5.269 6.437-0.55 0.15-1.131 0.231-1.731 0.231-0.425 0-0.831-0.044-1.237-0.119 0.838 2.606 3.263 4.506 6.131 4.563-2.25 1.762-5.075 2.813-8.156 2.813-0.531 0-1.050-0.031-1.569-0.094 2.913 1.869 6.362 2.95 10.069 2.95 12.075 0 18.681-10.006 18.681-18.681 0-0.287-0.006-0.569-0.019-0.85 1.281-0.919 2.394-2.075 3.275-3.394z"></path>
</symbol>
</defs>
</svg>
